<svg width="700" height="700" xmlns="http://www.w3.org/2000/svg" version="1.1">

 <g>
  <title>Layer 1</title>
  <path stroke="null" fill="#cf000d" id="svg_92" d="m459.33907,530.41379c-13.37715,0 -24.21263,-10.83548 -24.21263,-24.21264c0,-13.37715 10.83548,-24.21263 24.21263,-24.21263c13.37716,0 24.21264,10.83548 24.21264,24.21263c0,13.37716 -10.83548,24.21264 -24.21264,24.21264z" opacity="undefined"/>
  <path stroke="null" fill="#cf000d" id="svg_91" d="m458.6724,194.41377c-13.37715,0 -24.21263,-10.83548 -24.21263,-24.21264c0,-13.37715 10.83548,-24.21263 24.21263,-24.21263c13.37716,0 24.21264,10.83548 24.21264,24.21263c0,13.37716 -10.83548,24.21264 -24.21264,24.21264z" opacity="undefined"/>
  <path stroke="null" fill="#cf000d" id="svg_90" d="m543.33907,260.74711c-13.37715,0 -24.21263,-10.83548 -24.21263,-24.21264c0,-13.37715 10.83548,-24.21263 24.21263,-24.21263c13.37716,0 24.21264,10.83548 24.21264,24.21263c0,13.37716 -10.83548,24.21264 -24.21264,24.21264z" opacity="undefined"/>
  <path stroke="null" fill="#cf000d" id="svg_89" d="m543.33907,359.74711c-13.37715,0 -24.21263,-10.83548 -24.21263,-24.21264c0,-13.37715 10.83548,-24.21263 24.21263,-24.21263c13.37716,0 24.21264,10.83548 24.21264,24.21263c0,13.37716 -10.83548,24.21264 -24.21264,24.21264z" opacity="undefined"/>
  <path stroke="null" fill="#cf000d" id="svg_88" d="m544.00574,461.08045c-13.37715,0 -24.21263,-10.83548 -24.21263,-24.21264c0,-13.37715 10.83548,-24.21263 24.21263,-24.21263c13.37716,0 24.21264,10.83548 24.21264,24.21263c0,13.37716 -10.83548,24.21264 -24.21264,24.21264z" opacity="undefined"/>
  <g id="svg_23">
   <path fill="#999999" id="svg_24" d="m272.43611,557.65828c-14.242,-0.05469 -28.199,-4.0039 -40.359,-11.418c-12.164,-7.4102 -22.07,-18.008 -28.648,-30.637c-48.883,-4.0273 -86.625,-50.578 -86.625,-107.86l0,-4.375c-8.3438,-16.902 -12.637,-35.516 -12.543,-54.367c0,-38.441 17.5,-73.734 45.91,-93.332c-1.3008,-5.5664 -1.9648,-11.262 -1.9844,-16.977c0,-38.207 29.168,-69.301 64.984,-69.301l1.168,0c6.1367,-21.668 22.426,-39.004 43.668,-46.477c21.246,-7.4766 44.801,-4.1641 63.156,8.8828c18.355,13.051 29.227,34.207 29.148,56.727l0,291.26c-0.03125,20.645 -8.2461,40.438 -22.844,55.035c-14.598,14.598 -34.387,22.812 -55.031,22.84l0.0004,-0.0008zm-59.266,-376.42c-29.168,0 -53.316,25.84 -53.316,57.633c0.02344,6.0703 0.94922,12.105 2.7422,17.906c0.75391,2.543 -0.30078,5.2773 -2.5664,6.6523c-27.242,16.684 -44.102,49.523 -44.102,85.574c-0.04687,17.527 4.1133,34.812 12.133,50.398c0.47266,0.91797 0.69531,1.9453 0.64063,2.9766l0,1.6914l0,3.6758c0,52.5 34.648,94.676 78.867,96.426c2.1953,0.08203 4.1562,1.3906 5.0742,3.3828c8.4844,18.414 24.941,31.922 44.656,36.652c19.719,4.7266 40.512,0.15234 56.426,-12.41c15.91,-12.566 25.184,-31.734 25.152,-52.012l0,-291.26c0.04297,-19.227 -9.5039,-37.211 -25.457,-47.945c-15.953,-10.734 -36.211,-12.805 -54.008,-5.5234c-17.793,7.2852 -30.785,22.965 -34.633,41.805c-0.58594,2.9453 -3.3125,4.9648 -6.3008,4.6641c-1.7656,-0.19141 -3.5352,-0.28906 -5.3086,-0.28906l0.00077,0.00246z"/>
   <path fill="#999999" id="svg_25" d="m276.8223,260.45828l-1.5156,0c-64.691,-17.5 -61.891,-84.176 -61.832,-84.875l-0.00391,0c0.1875,-3.1992 2.9219,-5.6484 6.125,-5.4844c1.5469,0.07812 3.0039,0.76562 4.043,1.9141s1.5781,2.6641 1.5,4.2109c0,2.332 -2.2148,57.926 53.199,72.977c3.1055,0.82812 4.957,4.0078 4.1406,7.1172c-0.75391,2.4844 -3.0586,4.1758 -5.6562,4.1406l0.00011,-0.0004z"/>
   <path fill="#999999" id="svg_26" d="m334.49611,221.77828c-37.391,0 -52.852,-33.133 -53.023,-33.484l0,0.00391c-1.3359,-2.9336 -0.04688,-6.3945 2.8867,-7.7305c2.9336,-1.3359 6.3906,-0.04297 7.7305,2.8867c4.5898,9.3047 12.078,16.863 21.332,21.547c9.2578,4.6797 19.785,6.2266 30,4.4102c3.2227,-0.49609 6.2383,1.7109 6.7383,4.9297c0.5,3.2227 -1.707,6.2383 -4.9297,6.7383c-3.5547,0.50391 -7.1445,0.73828 -10.734,0.69922l-0.0008,-0.00053z"/>
   <path fill="#999999" id="svg_27" d="m199.1723,274.27828l-0.29297,0l0.00391,0c-3.2227,0 -5.8359,-2.6094 -5.8359,-5.832c1.2852,-27.184 39.84,-43.109 41.477,-43.75c1.4531,-0.69531 3.125,-0.75781 4.625,-0.17969c1.5,0.58203 2.6953,1.7578 3.3008,3.25c0.60156,1.4922 0.56641,3.1641 -0.10547,4.6289c-0.67187,1.4609 -1.918,2.582 -3.4453,3.0938c-9.2148,3.793 -33.426,17.148 -34.242,33.543l0,-0.00391c-0.28125,2.8633 -2.6094,5.0938 -5.4844,5.25l-0.00067,-0.0001z"/>
   <path fill="#999999" id="svg_28" d="m218.76611,351.04828c-8.418,-0.05859 -16.598,-2.8203 -23.332,-7.875c-2.6094,-1.918 -3.1719,-5.5859 -1.2539,-8.1992c1.918,-2.6094 5.5859,-3.168 8.1953,-1.2539c6.1211,4.6953 13.934,6.6016 21.527,5.25c25.84,-4.0234 50.574,-37.859 50.867,-38.207l-0.00391,0c0.36328,-0.54297 0.84375,-1.0039 1.4023,-1.3398c9.9688,-7.5898 22.711,-10.543 35,-8.1094c23.332,5.1328 37.801,29.168 38.441,30.16l0,-0.00391c1.6406,2.7734 0.72656,6.3516 -2.043,7.9922c-2.7539,1.6523 -6.3281,0.76562 -7.9922,-1.9805c0,0 -12.773,-20.77 -31.148,-24.734c-8.8281,-1.6602 -17.945,0.45312 -25.141,5.832c-4.375,5.832 -29.168,37.566 -57.867,42.059c-2.2031,0.30469 -4.4258,0.44141 -6.6523,0.41016l0.00071,-0.00065z"/>
   <path fill="#999999" id="svg_29" d="m171.9423,376.65828c-2.7617,-0.03125 -5.1211,-1.9922 -5.6562,-4.6992c-0.53516,-2.707 0.89844,-5.418 3.4375,-6.5c14.293,-5.832 22.109,-12.832 23.332,-20.941c1.75,-13.648 -15.34,-29.516 -22.051,-34.477l0.00391,0c-1.25,-0.91797 -2.0781,-2.2969 -2.3086,-3.8281s0.16016,-3.0938 1.082,-4.3359c1.9102,-2.5586 5.5273,-3.1055 8.1094,-1.2266c1.2266,0.875 29.691,22.109 26.773,45.324c-1.6328,12.66 -11.668,22.867 -30.332,30.273l0,0.00391c-0.76172,0.30078 -1.5742,0.44141 -2.3906,0.40625l0.00059,0.00064z"/>
   <path fill="#999999" id="svg_30" d="m199.1123,515.01828c-3.0273,0.01172 -5.5586,-2.293 -5.832,-5.3086c-2.7422,-30.508 3.8516,-54.949 19.484,-72.742c14.059,-15.062 32.938,-24.738 53.375,-27.355c0.72266,-9.8398 4.2812,-19.254 10.246,-27.113c5.9609,-7.8594 14.074,-13.82 23.352,-17.164c3.0469,-1.0781 6.3906,0.51562 7.4688,3.5586c1.0781,3.0469 -0.51562,6.3867 -3.5586,7.4688c-1.168,0.41016 -27.418,10.09 -25.84,38.207c0.09375,1.6055 -0.47656,3.1836 -1.582,4.3516c-1.1055,1.1719 -2.6445,1.8359 -4.2539,1.832c-19.234,1.543 -37.23,10.098 -50.574,24.031c-13.418,15.285 -18.957,36.75 -16.566,64.168c0.26953,3.2031 -2.1055,6.0234 -5.3086,6.3008l-0.4107,-0.2352z"/>
   <path fill="#999999" id="svg_31" d="m214.2223,450.44828c-0.44531,0.0625 -0.89453,0.0625 -1.3398,0c-19.941,-5.5078 -36.684,-19.082 -46.199,-37.449c-0.68359,-1.3945 -0.78516,-3 -0.28125,-4.4648c0.5,-1.4688 1.5703,-2.6758 2.9609,-3.3516c1.3945,-0.68359 3,-0.78516 4.4688,-0.28125c1.4648,0.50391 2.6719,1.5703 3.3516,2.9648c0,0.29297 12.484,25.141 38.324,31.207c3.2188,0.35547 5.5469,3.2539 5.1914,6.4766c-0.35547,3.2188 -3.2539,5.543 -6.4766,5.1914l-0.00005,-0.29315z"/>
   <path fill="#999999" id="svg_32" d="m281.63992,476.92828c-1.0938,0.00391 -2.1641,-0.30078 -3.0898,-0.875c-1.3086,-0.82812 -2.2344,-2.1406 -2.5742,-3.6523c-0.33984,-1.5078 -0.0625,-3.0898 0.76562,-4.3984c0,-0.41016 26.543,-41.59 68.891,-29.168c1.5938,0.33594 2.9766,1.3242 3.8086,2.7266c0.83594,1.4023 1.043,3.0898 0.57812,4.6523c-0.46484,1.5586 -1.5664,2.8555 -3.0312,3.5703c-1.4648,0.71875 -3.1602,0.78516 -4.6797,0.19531c-33.715,-9.9766 -54.832,22.691 -55.707,24.09l-0.00391,0c-1.0391,1.7539 -2.918,2.8359 -4.957,2.8594l-0.00053,-0.00021z"/>
   <path fill="#999999" id="svg_34" d="m400.8323,255.02828l-55.941,0c-3.2227,0 -5.832,-2.6094 -5.832,-5.832c1.944,-1.944 3.888,-3.888 5.832,-5.832l53.082,0l41.648,-54.543l0.00391,0c1.9648,-2.5625 5.6328,-3.043 8.1953,-1.0781c2.5586,1.9648 3.043,5.6328 1.0781,8.1953l-43.398,56.816c-1.1172,1.4453 -2.8438,2.2891 -4.668,2.2734l-0.00031,0.0004z"/>
   <path fill="#999999" id="svg_35" d="m458.4123,202.46828c-8.4609,0 -16.578,-3.3594 -22.562,-9.3438c-5.9844,-5.9844 -9.3438,-14.102 -9.3438,-22.562c0,-8.4648 3.3594,-16.578 9.3438,-22.562c5.9844,-5.9844 14.102,-9.3477 22.562,-9.3477c8.4648,0 16.578,3.3633 22.562,9.3477c5.9844,5.9844 9.3477,14.098 9.3477,22.562c0,8.4609 -3.3633,16.578 -9.3477,22.562c-5.9844,5.9844 -14.098,9.3438 -22.562,9.3438zm0,-52.148c-5.3672,0 -10.516,2.1328 -14.312,5.9297c-3.7969,3.7969 -5.9297,8.9453 -5.9297,14.312c0,5.3672 2.1328,10.516 5.9297,14.312c3.7969,3.7969 8.9453,5.9297 14.312,5.9297c5.3672,0 10.516,-2.1328 14.312,-5.9297c3.7969,-3.7969 5.9297,-8.9453 5.9297,-14.312c0,-5.3672 -2.1328,-10.516 -5.9297,-14.312c-3.7969,-3.7969 -8.9453,-5.9297 -14.312,-5.9297z"/>
   <path fill="#999999" id="svg_36" d="m444.2323,490.11828c-1.8047,-0.00391 -3.5039,-0.84375 -4.6055,-2.2773l-41.652,-54.309l-53.082,0c-3.2227,0 -5.832,-2.6094 -5.832,-5.832s2.6094,-5.832 5.832,-5.832l55.941,0c1.8242,-0.01562 3.5508,0.82812 4.668,2.2734l43.398,56.816c1.2266,1.7656 1.3828,4.0625 0.40625,5.9766s-2.9258,3.1367 -5.0742,3.1836l0.00045,0.0007z"/>
   <path fill="#999999" id="svg_37" d="m458.4123,538.23828c-8.4609,0 -16.578,-3.3633 -22.562,-9.3477c-5.9844,-5.9844 -9.3438,-14.098 -9.3438,-22.562c0,-8.4609 3.3594,-16.578 9.3438,-22.562c5.9844,-5.9844 14.102,-9.3438 22.562,-9.3438c8.4648,0 16.578,3.3594 22.562,9.3438c5.9844,5.9844 9.3477,14.102 9.3477,22.562c0,8.4648 -3.3633,16.578 -9.3477,22.562c-5.9844,5.9844 -14.098,9.3477 -22.562,9.3477zm0,-52.148l0,-0.00391c-5.3672,0 -10.516,2.1328 -14.312,5.9297c-3.7969,3.7969 -5.9297,8.9453 -5.9297,14.312c0,5.3672 2.1328,10.516 5.9297,14.312c3.7969,3.7969 8.9453,5.9297 14.312,5.9297c5.3672,0 10.516,-2.1328 14.312,-5.9297c3.7969,-3.7969 5.9297,-8.9453 5.9297,-14.312c-0.01562,-5.3633 -2.1523,-10.504 -5.9453,-14.297c-3.793,-3.793 -8.9336,-5.9297 -14.297,-5.9453l0.0006,0.00451z"/>
   <path fill="#999999" id="svg_38" d="m515.9223,340.71828l-171.03,0c-3.2227,0 -5.832,-2.6094 -5.832,-5.832s2.6094,-5.832 5.832,-5.832l171.03,0c3.2227,0 5.8359,2.6094 5.8359,5.832s-2.6133,5.832 -5.8359,5.832z"/>
   <path fill="#999999" id="svg_39" d="m543.2823,367.61828c-8.6953,0 -17.031,-3.457 -23.18,-9.6016c-6.1484,-6.1484 -9.6016,-14.488 -9.6016,-23.184c0,-8.6953 3.4531,-17.031 9.6016,-23.18s14.484,-9.6016 23.18,-9.6016c8.6953,0 17.035,3.4531 23.184,9.6016c6.1445,6.1484 9.6016,14.484 9.6016,23.18c0,8.6953 -3.457,17.035 -9.6016,23.184c-6.1484,6.1445 -14.488,9.6016 -23.184,9.6016zm0,-53.898l0,-0.00391c-5.6016,0 -10.973,2.2266 -14.93,6.1875c-3.9609,3.957 -6.1875,9.3281 -6.1875,14.93c0,5.6016 2.2266,10.973 6.1875,14.934c3.957,3.957 9.3281,6.1836 14.93,6.1836c5.6016,0 10.973,-2.2266 14.934,-6.1836c3.957,-3.9609 6.1836,-9.332 6.1836,-14.934c-0.03125,-5.5859 -2.2656,-10.934 -6.2227,-14.875c-3.9531,-3.9453 -9.3086,-6.168 -14.895,-6.1836l0.0001,-0.05499z"/>
   <path fill="#999999" id="svg_40" d="m543.2823,268.96828c-8.6953,0 -17.031,-3.4531 -23.18,-9.6016s-9.6016,-14.484 -9.6016,-23.18c0,-8.6953 3.4531,-17.035 9.6016,-23.184c6.1484,-6.1445 14.484,-9.6016 23.18,-9.6016c8.6953,0 17.035,3.457 23.184,9.6016c6.1445,6.1484 9.6016,14.488 9.6016,23.184c0,8.6953 -3.457,17.031 -9.6016,23.18c-6.1484,6.1484 -14.488,9.6016 -23.184,9.6016zm0,-53.898c-5.6016,0 -10.973,2.2266 -14.93,6.1836c-3.9609,3.9609 -6.1875,9.332 -6.1875,14.934c0,5.6016 2.2266,10.973 6.1875,14.93c3.957,3.9609 9.3281,6.1875 14.93,6.1875c5.6016,0 10.973,-2.2266 14.934,-6.1875c3.957,-3.957 6.1836,-9.3281 6.1836,-14.93c-0.01563,-5.5977 -2.2461,-10.957 -6.2031,-14.914s-9.3164,-6.1875 -14.914,-6.2031l-0.0005,-0.0005z"/>
   <path fill="#999999" id="svg_41" d="m444.2323,296.38828l-99.168,0l0.00391,0c-3.2227,0 -5.8359,-2.6133 -5.8359,-5.832c0,-3.2227 2.6133,-5.8359 5.8359,-5.8359l96.25,0l38.5,-51.977l0,0.00391c1.0898,-1.4922 2.8203,-2.3789 4.6641,-2.3906l31.852,0c3.2227,0 5.832,2.6094 5.832,5.832c0,3.2227 -2.6094,5.832 -5.832,5.832l-29.168,0l-38.266,51.977c-1.0898,1.4883 -2.8203,2.3789 -4.668,2.3906l-0.00001,-0.00001z"/>
   <path fill="#999999" id="svg_42" d="m543.2823,468.82828c-8.6953,0 -17.031,-3.4531 -23.18,-9.6016c-6.1484,-6.1484 -9.6016,-14.488 -9.6016,-23.184c0,-8.6914 3.4531,-17.031 9.6016,-23.18c6.1484,-6.1484 14.484,-9.6016 23.18,-9.6016c8.6953,0 17.035,3.4531 23.184,9.6016c6.1445,6.1484 9.6016,14.488 9.6016,23.18c0,8.6953 -3.457,17.035 -9.6016,23.184c-6.1484,6.1484 -14.488,9.6016 -23.184,9.6016zm0,-53.898c-5.6016,0 -10.973,2.2227 -14.93,6.1836c-3.9609,3.9609 -6.1875,9.332 -6.1875,14.93c0,5.6016 2.2266,10.973 6.1875,14.934c3.957,3.9609 9.3281,6.1836 14.93,6.1836c5.6016,0 10.973,-2.2227 14.934,-6.1836c3.957,-3.9609 6.1836,-9.332 6.1836,-14.934c-0.01563,-5.5938 -2.2461,-10.957 -6.2031,-14.914s-9.3164,-6.1836 -14.914,-6.1992l-0.0005,-0.0004z"/>
   <path fill="#999999" id="svg_43" d="m516.3323,441.87828l-31.852,0c-1.8438,-0.01562 -3.5742,-0.90234 -4.6641,-2.3906l-38.5,-51.977l-96.367,0c-3.2227,0 -5.8359,-2.6133 -5.8359,-5.832c0,-3.2227 2.6133,-5.8359 5.8359,-5.8359l99.168,0l-0.00391,0c1.8477,0.01563 3.5781,0.90234 4.668,2.3945l38.5,51.977l29.168,0l0,-0.00391c3.2227,0 5.832,2.6133 5.832,5.832c0,3.2227 -2.6094,5.8359 -5.832,5.8359l-0.11699,0.00001z"/>
  </g>
 </g>
</svg>