<svg xmlns="http://www.w3.org/2000/svg" xmlns:xlink="http://www.w3.org/1999/xlink" version="1.1" width="1000" height="1000" viewBox="0 0 1000 1000" xml:space="preserve">
<desc>Created with Fabric.js 3.5.0</desc>
<defs>
</defs>
<rect x="0" y="0" width="100%" height="100%" fill="rgba(0,0,0,0)"/>
<g transform="matrix(1 0 0 1 495.5251 508.0974)" style="" id="178162">
		
<path xml:space="preserve" font-family="Francois One" font-size="277" font-style="normal" font-weight="normal" style="stroke: none; stroke-width: 0; stroke-dasharray: none; stroke-linecap: butt; stroke-dashoffset: 0; stroke-linejoin: miter; stroke-miterlimit: 4; is-custom-font: none; font-file-url: none; fill: rgb(255,255,255); fill-rule: nonzero; opacity: 1; white-space: pre;" d="M-369.93 87.02L-406.22 87.02L-362.45-118.24L-304.56-120.73L-259.69 85.35L-304.01 87.02L-311.49 42.42L-361.07 42.42L-369.93 87.02ZM-338.08-90.26L-353.59 9.18L-318.97 9.18L-338.08-90.26ZM-196.53 85.35L-237.25 88.68L-237.25-117.41L-196.53-120.73L-196.53-36.53L-157.75-36.53L-157.75-117.41L-117.03-120.73L-117.03 85.35L-157.75 88.68L-157.75 0.59L-196.53 0.59L-196.53 85.35ZM102.91 85.35L60.80 88.68L60.80-67.27L22.02 87.02L-2.91 87.02L-44.74-67.83L-44.74 85.35L-78.25 87.02L-78.25-118.79L-18.70-120.46L15.65 8.07L48.61-115.75L102.91-119.07L102.91 85.35ZM246.11 87.02L141.69 87.02L141.69-120.73L247.22-120.73L243.90-88.32L182.40-88.32L182.40-38.74L226.17-38.74L225.89-3.84L182.40-3.84L182.40 54.61L249.44 54.61L246.11 87.02ZM275.48 87.02L275.48-120.73L318.13-120.73Q359.13-120.73 379.35-94.70Q399.57-68.66 399.57-16.03L399.57-16.03Q399.57 11.95 391.96 35.22Q384.34 58.49 367.72 72.75Q351.10 87.02 325.34 87.02L325.34 87.02L275.48 87.02ZM315.92 54.61L321.74 54.61Q342.79 54.61 350.96 36.46Q359.13 18.32 359.13-8.27L359.13-8.27L359.13-17.69Q359.13-36.80 356.78-51.62Q354.42-66.44 345.97-77.38Q337.52-88.32 320.63-88.32L320.63-88.32L315.92-88.32L315.92 54.61Z"/></g>
<g transform="matrix(2.7976 0 0 2.7976 929.5356 583.2388)" id="45270">
<circle style="stroke: none; stroke-width: 1; stroke-dasharray: none; stroke-linecap: butt; stroke-dashoffset: 0; stroke-linejoin: miter; stroke-miterlimit: 4; is-custom-font: none; font-file-url: none; fill: rgb(207,0,15); fill-rule: nonzero; opacity: 1;" vector-effect="non-scaling-stroke" cx="0" cy="0" r="8"/>
</g>
</svg>